<svg width="29" height="29" viewBox="0 0 29 29" fill="none" xmlns="http://www.w3.org/2000/svg">
<path d="M18.1252 4.83333C19.407 4.83333 20.6364 5.34256 21.5428 6.24898C22.4493 7.15541 22.9585 8.38479 22.9585 9.66667C22.9585 10.9485 22.4493 12.1779 21.5428 13.0843C20.6364 13.9908 19.407 14.5 18.1252 14.5C16.8433 14.5 15.6139 13.9908 14.7075 13.0843C13.8011 12.1779 13.2918 10.9485 13.2918 9.66667C13.2918 8.38479 13.8011 7.15541 14.7075 6.24898C15.6139 5.34256 16.8433 4.83333 18.1252 4.83333ZM18.1252 7.12917C17.4522 7.12917 16.8068 7.39651 16.3309 7.87238C15.855 8.34826 15.5877 8.99368 15.5877 9.66667C15.5877 10.3397 15.855 10.9851 16.3309 11.4609C16.8068 11.9368 17.4522 12.2042 18.1252 12.2042C18.7982 12.2042 19.4436 11.9368 19.9194 11.4609C20.3953 10.9851 20.6627 10.3397 20.6627 9.66667C20.6627 8.99368 20.3953 8.34826 19.9194 7.87238C19.4436 7.39651 18.7982 7.12917 18.1252 7.12917ZM18.1252 15.7083C21.3514 15.7083 27.7918 17.3154 27.7918 20.5417V24.1667H8.4585V20.5417C8.4585 17.3154 14.8989 15.7083 18.1252 15.7083ZM18.1252 18.0042C14.5002 18.0042 10.7543 19.7683 10.7543 20.5417V21.8708H25.496V20.5417C25.496 19.7683 21.7139 18.0042 18.1252 18.0042ZM6.04183 16.0467L3.021 17.8471L3.84266 14.4517L1.2085 12.18L4.67641 11.8779L6.04183 8.68792L7.38308 11.8779L10.8752 12.18L8.21683 14.4517L9.00225 17.8471L6.04183 16.0467Z" fill="#4BDC28"/>
</svg>
