<svg width="29" height="29" viewBox="0 0 29 29" fill="none" xmlns="http://www.w3.org/2000/svg">
<path d="M16.7655 26.5833H12.2343C11.9322 26.5833 11.6704 26.4826 11.4488 26.2813C11.2273 26.0799 11.0964 25.8281 11.0561 25.526L10.6936 22.7167C10.4318 22.616 10.1853 22.4951 9.95413 22.3542C9.72213 22.2132 9.49537 22.0622 9.27384 21.901L6.64571 22.9885C6.36377 23.0892 6.08182 23.0993 5.79988 23.0188C5.51793 22.9382 5.29641 22.767 5.1353 22.5052L2.89988 18.6083C2.73877 18.3465 2.68842 18.0646 2.74884 17.7625C2.80925 17.4604 2.9603 17.2188 3.20196 17.0375L5.46759 15.3156C5.44745 15.1747 5.43738 15.0385 5.43738 14.9072V14.0916C5.43738 13.9611 5.44745 13.8254 5.46759 13.6844L3.20196 11.9625C2.9603 11.7813 2.80925 11.5396 2.74884 11.2375C2.68842 10.9354 2.73877 10.6535 2.89988 10.3917L5.1353 6.4948C5.27627 6.21285 5.49256 6.03644 5.78417 5.96555C6.07659 5.89546 6.36377 5.91077 6.64571 6.01146L9.27384 7.09896C9.49537 6.93785 9.72696 6.78681 9.96863 6.64584C10.2103 6.50487 10.452 6.38403 10.6936 6.28334L11.0561 3.47396C11.0964 3.17188 11.2273 2.92014 11.4488 2.71876C11.6704 2.51737 11.9322 2.41667 12.2343 2.41667H16.7655C17.0676 2.41667 17.3294 2.51737 17.5509 2.71876C17.7724 2.92014 17.9034 3.17188 17.9436 3.47396L18.3061 6.28334C18.5679 6.38403 18.8148 6.50487 19.0468 6.64584C19.278 6.78681 19.5044 6.93785 19.7259 7.09896L22.354 6.01146C22.636 5.91077 22.9179 5.9007 23.1999 5.98125C23.4818 6.06181 23.7034 6.23299 23.8645 6.4948L26.0999 10.3917C26.261 10.6535 26.3113 10.9354 26.2509 11.2375C26.1905 11.5396 26.0395 11.7813 25.7978 11.9625L23.5322 13.6844C23.5523 13.8254 23.5624 13.9611 23.5624 14.0916V14.9072C23.5624 15.0385 23.5422 15.1747 23.502 15.3156L25.7676 17.0375C26.0093 17.2188 26.1603 17.4604 26.2207 17.7625C26.2811 18.0646 26.2308 18.3465 26.0697 18.6083L23.8343 22.475C23.6731 22.7368 23.4468 22.9132 23.1552 23.0043C22.8628 23.0945 22.5756 23.0892 22.2936 22.9885L19.7259 21.901C19.5044 22.0622 19.2728 22.2132 19.0311 22.3542C18.7895 22.4951 18.5478 22.616 18.3061 22.7167L17.9436 25.526C17.9034 25.8281 17.7724 26.0799 17.5509 26.2813C17.3294 26.4826 17.0676 26.5833 16.7655 26.5833ZM14.5603 18.7292C15.7284 18.7292 16.7252 18.3163 17.5509 17.4906C18.3766 16.6649 18.7895 15.6681 18.7895 14.5C18.7895 13.3319 18.3766 12.3351 17.5509 11.5094C16.7252 10.6837 15.7284 10.2708 14.5603 10.2708C13.3721 10.2708 12.37 10.6837 11.554 11.5094C10.7387 12.3351 10.3311 13.3319 10.3311 14.5C10.3311 15.6681 10.7387 16.6649 11.554 17.4906C12.37 18.3163 13.3721 18.7292 14.5603 18.7292ZM14.5603 16.3125C14.0568 16.3125 13.6291 16.1361 13.277 15.7833C12.9242 15.4312 12.7478 15.0035 12.7478 14.5C12.7478 13.9965 12.9242 13.5688 13.277 13.2168C13.6291 12.8639 14.0568 12.6875 14.5603 12.6875C15.0638 12.6875 15.4919 12.8639 15.8448 13.2168C16.1968 13.5688 16.3728 13.9965 16.3728 14.5C16.3728 15.0035 16.1968 15.4312 15.8448 15.7833C15.4919 16.1361 15.0638 16.3125 14.5603 16.3125ZM13.2915 24.1667H15.678L16.1009 20.9646C16.7252 20.8035 17.3044 20.5666 17.8385 20.2541C18.3718 19.9423 18.8599 19.5649 19.303 19.1219L22.2936 20.3604L23.4718 18.3063L20.8738 16.3427C20.9745 16.0608 21.045 15.7635 21.0853 15.451C21.1256 15.1392 21.1457 14.8222 21.1457 14.5C21.1457 14.1778 21.1256 13.8604 21.0853 13.5478C21.045 13.2361 20.9745 12.9392 20.8738 12.6573L23.4718 10.6938L22.2936 8.63959L19.303 9.90834C18.8599 9.44514 18.3718 9.05727 17.8385 8.74471C17.3044 8.43296 16.7252 8.19653 16.1009 8.03542L15.7082 4.83334H13.3218L12.8988 8.03542C12.2745 8.19653 11.6957 8.43296 11.1625 8.74471C10.6284 9.05727 10.1398 9.43507 9.69675 9.87813L6.70613 8.63959L5.528 10.6938L8.12592 12.6271C8.02523 12.9292 7.95474 13.2313 7.91446 13.5333C7.87418 13.8354 7.85405 14.1576 7.85405 14.5C7.85405 14.8222 7.87418 15.1344 7.91446 15.4365C7.95474 15.7385 8.02523 16.0406 8.12592 16.3427L5.528 18.3063L6.70613 20.3604L9.69675 19.0917C10.1398 19.5549 10.6284 19.9423 11.1625 20.2541C11.6957 20.5666 12.2745 20.8035 12.8988 20.9646L13.2915 24.1667Z" fill="#4BDC28"/>
</svg>
