<svg width="29" height="29" viewBox="0 0 29 29" fill="none" xmlns="http://www.w3.org/2000/svg">
<path d="M24.7708 17.5208V19.3333H22.9583V17.5208H24.7708ZM22.3541 11.4792H20.5416V10.875C20.5416 9.91359 20.9235 8.99155 21.6033 8.31173C22.2831 7.63191 23.2052 7.24999 24.1666 7.24999C25.128 7.24999 26.05 7.63191 26.7298 8.31173C27.4097 8.99155 27.7916 9.91359 27.7916 10.875C27.7916 12.0471 27.1874 13.1467 26.2328 13.7871L25.8703 14.0167C25.1816 14.5 24.7708 15.2371 24.7708 16.0708V16.3125H22.9583V16.0708C22.9583 14.6329 23.6833 13.2917 24.8795 12.5062L25.2299 12.2767C25.7012 11.9625 25.9791 11.4429 25.9791 10.875C25.9791 10.3943 25.7881 9.93327 25.4482 9.59336C25.1083 9.25345 24.6473 9.0625 24.1666 9.0625C23.6859 9.0625 23.2249 9.25345 22.885 9.59336C22.545 9.93327 22.3541 10.3943 22.3541 10.875V11.4792ZM10.8749 15.7083C14.1012 15.7083 20.5416 17.3275 20.5416 20.5417V24.1667H1.20825V20.5417C1.20825 17.3275 7.64867 15.7083 10.8749 15.7083ZM10.8749 4.83333C12.1568 4.83333 13.3862 5.34255 14.2926 6.24898C15.199 7.1554 15.7083 8.38478 15.7083 9.66666C15.7083 10.9485 15.199 12.1779 14.2926 13.0843C13.3862 13.9908 12.1568 14.5 10.8749 14.5C9.59304 14.5 8.36366 13.9908 7.45724 13.0843C6.55081 12.1779 6.04159 10.9485 6.04159 9.66666C6.04159 8.38478 6.55081 7.1554 7.45724 6.24898C8.36366 5.34255 9.59304 4.83333 10.8749 4.83333ZM10.8749 18.0042C7.28617 18.0042 3.50409 19.7683 3.50409 20.5417V21.8708H18.2458V20.5417C18.2458 19.7683 14.4637 18.0042 10.8749 18.0042ZM10.8749 7.12916C10.2019 7.12916 9.55651 7.3965 9.08064 7.87238C8.60476 8.34825 8.33742 8.99367 8.33742 9.66666C8.33742 10.3396 8.60476 10.9851 9.08064 11.4609C9.55651 11.9368 10.2019 12.2042 10.8749 12.2042C11.5479 12.2042 12.1933 11.9368 12.6692 11.4609C13.1451 10.9851 13.4124 10.3396 13.4124 9.66666C13.4124 8.99367 13.1451 8.34825 12.6692 7.87238C12.1933 7.3965 11.5479 7.12916 10.8749 7.12916Z" fill="#4BDC28"/>
</svg>
