<svg width="29" height="29" viewBox="0 0 29 29" fill="none" xmlns="http://www.w3.org/2000/svg">
<path fill-rule="evenodd" clip-rule="evenodd" d="M19.3332 10.8751C19.3332 12.157 18.8239 13.3863 17.9175 14.2928C17.0111 15.1992 15.7817 15.7084 14.4998 15.7084C13.218 15.7084 11.9886 15.1992 11.0822 14.2928C10.1757 13.3863 9.6665 12.157 9.6665 10.8751C9.6665 9.5932 10.1757 8.36382 11.0822 7.4574C11.9886 6.55097 13.218 6.04175 14.4998 6.04175C15.7817 6.04175 17.0111 6.55097 17.9175 7.4574C18.8239 8.36382 19.3332 9.5932 19.3332 10.8751ZM16.9165 10.8751C16.9165 11.516 16.6619 12.1307 16.2087 12.5839C15.7555 13.0371 15.1408 13.2917 14.4998 13.2917C13.8589 13.2917 13.2442 13.0371 12.791 12.5839C12.3378 12.1307 12.0832 11.516 12.0832 10.8751C12.0832 10.2341 12.3378 9.61945 12.791 9.16624C13.2442 8.71303 13.8589 8.45841 14.4998 8.45841C15.1408 8.45841 15.7555 8.71303 16.2087 9.16624C16.6619 9.61945 16.9165 10.2341 16.9165 10.8751Z" fill="#4BDC28"/>
<path fill-rule="evenodd" clip-rule="evenodd" d="M14.4999 1.20837C7.15929 1.20837 1.20825 7.15942 1.20825 14.5C1.20825 21.8407 7.15929 27.7917 14.4999 27.7917C21.8405 27.7917 27.7916 21.8407 27.7916 14.5C27.7916 7.15942 21.8405 1.20837 14.4999 1.20837ZM3.62492 14.5C3.62492 17.0255 4.48646 19.3503 5.93042 21.1966C6.94449 19.8649 8.25271 18.7857 9.7529 18.0433C11.2531 17.3008 12.9046 16.9153 14.5785 16.9167C16.2306 16.9151 17.8614 17.2907 19.3465 18.0148C20.8315 18.7389 22.1317 19.7924 23.148 21.0951C24.1949 19.722 24.8998 18.1193 25.2044 16.4196C25.509 14.7199 25.4044 12.9721 24.8994 11.3209C24.3944 9.66965 23.5035 8.16239 22.3003 6.92384C21.0971 5.68528 19.6163 4.75104 17.9804 4.19841C16.3445 3.64577 14.6005 3.49064 12.8927 3.74584C11.1849 4.00104 9.56242 4.65924 8.15951 5.66598C6.75661 6.67272 5.61361 7.99905 4.82507 9.53524C4.03653 11.0714 3.62514 12.7733 3.62492 14.5ZM14.4999 25.375C12.0034 25.3788 9.58232 24.52 7.64625 22.9439C8.42554 21.8283 9.46279 20.9174 10.6697 20.2888C11.8767 19.6602 13.2176 19.3324 14.5785 19.3334C15.9223 19.3323 17.247 19.6519 18.4426 20.2655C19.6382 20.8792 20.6701 21.7692 21.4527 22.8617C19.5016 24.489 17.0405 25.3786 14.4999 25.375Z" fill="#4BDC28"/>
</svg>
