<svg width="29" height="29" viewBox="0 0 29 29" fill="none" xmlns="http://www.w3.org/2000/svg">
<path d="M18.1249 4.83333C19.4068 4.83333 20.6362 5.34256 21.5426 6.24898C22.449 7.15541 22.9583 8.38479 22.9583 9.66667C22.9583 10.9485 22.449 12.1779 21.5426 13.0843C20.6362 13.9908 19.4068 14.5 18.1249 14.5C16.843 14.5 15.6137 13.9908 14.7072 13.0843C13.8008 12.1779 13.2916 10.9485 13.2916 9.66667C13.2916 8.38479 13.8008 7.15541 14.7072 6.24898C15.6137 5.34256 16.843 4.83333 18.1249 4.83333ZM18.1249 7.12917C17.4519 7.12917 16.8065 7.39651 16.3306 7.87238C15.8548 8.34826 15.5874 8.99368 15.5874 9.66667C15.5874 10.3397 15.8548 10.9851 16.3306 11.4609C16.8065 11.9368 17.4519 12.2042 18.1249 12.2042C18.7979 12.2042 19.4433 11.9368 19.9192 11.4609C20.3951 10.9851 20.6624 10.3397 20.6624 9.66667C20.6624 8.99368 20.3951 8.34826 19.9192 7.87238C19.4433 7.39651 18.7979 7.12917 18.1249 7.12917ZM18.1249 15.7083C21.3512 15.7083 27.7916 17.3154 27.7916 20.5417V24.1667H8.45825V20.5417C8.45825 17.3154 14.8987 15.7083 18.1249 15.7083ZM18.1249 18.0042C14.4999 18.0042 10.7541 19.7683 10.7541 20.5417V21.8708H25.4958V20.5417C25.4958 19.7683 21.7137 18.0042 18.1249 18.0042ZM6.04159 16.0467L3.02075 17.8471L3.84242 14.4517L1.20825 12.18L4.67617 11.8779L6.04159 8.68792L7.38284 11.8779L10.8749 12.18L8.21659 14.4517L9.002 17.8471L6.04159 16.0467Z" fill="white"/>
</svg>
