<svg width="29" height="29" viewBox="0 0 29 29" fill="none" xmlns="http://www.w3.org/2000/svg">
<path d="M18.7962 6.19567H22.0184C22.5882 6.19567 23.1346 6.4144 23.5374 6.80374C23.9403 7.19308 24.1666 7.72114 24.1666 8.27175V9.30979M18.7962 22.8043H22.0184C22.5882 22.8043 23.1346 22.5856 23.5374 22.1962C23.9403 21.8069 24.1666 21.2788 24.1666 20.7282V19.6902M11.2788 14.5H11.2777M18.7962 14.5H24.1666M24.1666 14.5L22.0184 12.4239M24.1666 14.5L22.0184 16.5761M6.36381 22.2105L12.8083 24.079C13.1291 24.1721 13.4679 24.1913 13.7978 24.1353C14.1277 24.0792 14.4395 23.9494 14.7082 23.7562C14.9769 23.5629 15.1952 23.3116 15.3455 23.0223C15.4958 22.7331 15.5741 22.4138 15.574 22.0901V6.90984C15.5741 6.58613 15.4958 6.26689 15.3455 5.97762C15.1952 5.68834 14.9769 5.43705 14.7082 5.24381C14.4395 5.05056 14.1277 4.92073 13.7978 4.86468C13.4679 4.80862 13.1291 4.8279 12.8083 4.92096L6.36381 6.78943C5.92131 6.9178 5.53343 7.18062 5.25771 7.5389C4.982 7.89717 4.83315 8.33181 4.83325 8.77831V20.2216C4.83315 20.6681 4.982 21.1028 5.25771 21.4611C5.53343 21.8193 5.92131 22.0822 6.36381 22.2105V22.2105Z" stroke="white" stroke-width="1.66667" stroke-linecap="round" stroke-linejoin="round"/>
</svg>
