<svg width="29" height="29" viewBox="0 0 29 29" fill="none" xmlns="http://www.w3.org/2000/svg">
<path fill-rule="evenodd" clip-rule="evenodd" d="M19.3332 10.875C19.3332 12.1569 18.8239 13.3863 17.9175 14.2927C17.0111 15.1991 15.7817 15.7083 14.4998 15.7083C13.218 15.7083 11.9886 15.1991 11.0822 14.2927C10.1757 13.3863 9.6665 12.1569 9.6665 10.875C9.6665 9.59312 10.1757 8.36374 11.0822 7.45732C11.9886 6.55089 13.218 6.04167 14.4998 6.04167C15.7817 6.04167 17.0111 6.55089 17.9175 7.45732C18.8239 8.36374 19.3332 9.59312 19.3332 10.875ZM16.9165 10.875C16.9165 11.5159 16.6619 12.1306 16.2087 12.5838C15.7555 13.0371 15.1408 13.2917 14.4998 13.2917C13.8589 13.2917 13.2442 13.0371 12.791 12.5838C12.3378 12.1306 12.0832 11.5159 12.0832 10.875C12.0832 10.2341 12.3378 9.61937 12.791 9.16616C13.2442 8.71295 13.8589 8.45833 14.4998 8.45833C15.1408 8.45833 15.7555 8.71295 16.2087 9.16616C16.6619 9.61937 16.9165 10.2341 16.9165 10.875Z" fill="white"/>
<path fill-rule="evenodd" clip-rule="evenodd" d="M14.4999 1.20833C7.15929 1.20833 1.20825 7.15938 1.20825 14.5C1.20825 21.8406 7.15929 27.7917 14.4999 27.7917C21.8405 27.7917 27.7916 21.8406 27.7916 14.5C27.7916 7.15938 21.8405 1.20833 14.4999 1.20833ZM3.62492 14.5C3.62492 17.0254 4.48646 19.3502 5.93042 21.1966C6.94449 19.8649 8.25271 18.7857 9.7529 18.0432C11.2531 17.3008 12.9046 16.9152 14.5785 16.9167C16.2306 16.9151 17.8614 17.2907 19.3465 18.0148C20.8315 18.7389 22.1317 19.7924 23.148 21.0951C24.1949 19.7219 24.8998 18.1192 25.2044 16.4195C25.509 14.7199 25.4044 12.9721 24.8994 11.3209C24.3944 9.66961 23.5035 8.16235 22.3003 6.9238C21.0971 5.68524 19.6163 4.751 17.9804 4.19836C16.3445 3.64573 14.6005 3.4906 12.8927 3.7458C11.1849 4.001 9.56242 4.6592 8.15951 5.66594C6.75661 6.67268 5.61361 7.99901 4.82507 9.53519C4.03653 11.0714 3.62514 12.7733 3.62492 14.5ZM14.4999 25.375C12.0034 25.3787 9.58232 24.5199 7.64625 22.9438C8.42554 21.8282 9.46279 20.9174 10.6697 20.2887C11.8767 19.6601 13.2176 19.3324 14.5785 19.3333C15.9223 19.3323 17.247 19.6518 18.4426 20.2655C19.6382 20.8791 20.6701 21.7692 21.4527 22.8617C19.5016 24.4889 17.0405 25.3786 14.4999 25.375Z" fill="white"/>
</svg>
